<svg width="327" height="24" viewBox="0 0 327 24" fill="none" xmlns="http://www.w3.org/2000/svg">
<g clip-path="url(#clip0_628_86)">
<path d="M239.121 4.97228C238.633 4.48339 237.994 4.23895 237.362 4.23895C236.729 4.23895 236.08 4.48339 235.591 4.97784L232.694 7.88339L229.792 4.97784C229.303 4.48895 228.665 4.2445 228.027 4.2445C227.389 4.2445 226.751 4.48895 226.262 4.97784L222.727 8.50006C221.756 9.47228 221.756 11.0556 222.727 12.0334L232.683 22.0001L242.64 12.0334C243.616 11.0612 243.611 9.47784 242.64 8.50006L239.115 4.97228H239.121ZM268.929 15.1112C273.74 15.1112 276.21 13.6001 276.21 10.3501C276.21 7.5445 274.173 5.67784 269.75 5.67784C264.389 5.67784 262.247 8.07228 261.758 12.3612C260.976 12.3112 260.121 12.2945 258.956 12.2889C258.956 12.0556 258.956 11.8223 258.956 11.5834C258.956 7.23339 257.158 5.66117 252.363 5.66117C250.021 5.66117 247.956 6.01117 246.696 6.52228L246.885 9.9945C247.984 9.41117 249.621 8.85006 251.175 8.85006C253.367 8.85006 254.033 9.75562 254.033 11.9278V12.2501C253.878 12.2501 253.495 12.2445 253.284 12.2445C247.823 12.2445 245.292 13.9001 245.292 16.9667C245.292 20.0334 246.863 21.9889 251.342 21.9889C253.7 21.9889 256.031 21.6556 259.034 21.6556C258.812 20.3889 258.806 18.5667 258.806 17.3167C258.806 16.6556 258.839 15.8667 258.873 14.9723C260.155 14.9834 261.098 15.0167 261.72 15.0445C262.18 20.1278 264.811 22.0112 270.288 22.0112C272.314 22.0112 274.362 21.6667 275.433 21.1667L275.244 17.6945C274.179 18.3112 272.697 18.8167 271.071 18.8167C268.379 18.8167 266.92 17.4112 266.92 15.1889V15.0834C267.397 15.1056 268.352 15.1223 268.918 15.1223L268.929 15.1112ZM252.513 18.9612C250.848 18.9612 250.137 18.4056 250.137 17.0112C250.137 15.6167 251.042 14.9056 253.317 14.9056C253.528 14.9056 253.783 14.9001 253.967 14.9167C253.956 16.2167 253.928 17.7334 254 18.7889C253.606 18.8945 253.023 18.9612 252.518 18.9612H252.513ZM266.909 12.4334V12.3556C266.909 10.1778 267.597 8.57784 269.595 8.57784C270.727 8.57784 271.454 9.17228 271.454 10.2501C271.454 11.7667 270.444 12.4723 268.346 12.4723C267.835 12.4723 267.303 12.4667 266.909 12.4334ZM286.055 18.5278C284.446 18.5278 283.974 17.8889 283.974 15.5501V9.51117H287.149V6.15561H284.024C284.024 4.96673 284.118 3.21117 284.218 2.00562H281.277C280.888 4.93895 280.039 6.45006 277.364 6.8945C277.353 7.68339 277.398 8.76117 277.364 9.51117H279.146C279.118 11.1778 279.068 14.2223 279.068 16.9945C279.068 20.5334 280.9 21.9834 284.34 21.9834C286.016 21.9834 287.248 21.7389 287.659 21.6223L287.448 18.1723C287.149 18.3723 286.555 18.5278 286.055 18.5278ZM319.537 11.5834C319.537 7.23339 317.739 5.66117 312.949 5.66117C310.602 5.66117 308.543 6.01117 307.283 6.52228L307.472 9.9945C308.571 9.41117 310.202 8.85006 311.762 8.85006C313.954 8.85006 314.62 9.75562 314.62 11.9278V12.2501C314.464 12.2501 314.082 12.2445 313.871 12.2445C308.404 12.2445 305.879 13.9001 305.879 16.9667C305.879 20.0334 307.45 21.9889 311.928 21.9889C314.287 21.9889 316.618 21.6556 319.615 21.6556C319.398 20.3889 319.393 18.5667 319.393 17.3167C319.393 15.9112 319.537 13.9223 319.537 11.5945V11.5834ZM313.094 18.9612C311.423 18.9612 310.718 18.4056 310.718 17.0112C310.718 15.6167 311.623 14.9056 313.898 14.9056C314.104 14.9056 314.359 14.9001 314.542 14.9167C314.537 16.2167 314.503 17.7334 314.581 18.7889C314.187 18.8945 313.604 18.9612 313.099 18.9612H313.094ZM303.876 14.4223C303.876 13.1112 303.903 11.3667 303.903 11.3667C303.903 7.43895 302.183 5.67784 297.316 5.67784C294.585 5.67784 292.637 6.15561 289.59 6.15561C289.763 8.91117 289.768 12.3167 289.757 14.4278C289.768 16.5723 289.685 20.4167 289.59 21.6556H294.818C294.696 20.4112 294.596 16.8389 294.607 14.4278C294.607 13.0556 294.624 11.3945 294.68 9.16673C295.201 8.98895 295.862 8.85561 296.578 8.85561C298.409 8.85561 298.997 9.71673 298.997 12.0778C298.997 12.0778 299.025 13.5612 299.025 14.4334C299.025 16.5778 298.953 20.4223 298.859 21.6612H304.086C303.964 20.4167 303.859 16.8445 303.876 14.4334V14.4223ZM322.195 6.2945C322.195 5.95561 321.99 5.81117 321.585 5.81117H320.947V7.48895H321.224V6.77228H321.485L321.918 7.48895H322.229L321.757 6.75006C322.007 6.72228 322.195 6.5945 322.195 6.2945ZM321.224 6.53895V6.05006H321.557C321.724 6.05006 321.923 6.07228 321.923 6.27784C321.923 6.52228 321.74 6.53895 321.535 6.53895H321.23H321.224ZM321.524 5.10562C320.725 5.10562 320.036 5.71117 320.036 6.62228C320.036 7.48339 320.658 8.13895 321.524 8.13895C322.317 8.13895 323.006 7.53339 323.006 6.62228C323.006 5.71117 322.317 5.10562 321.524 5.10562ZM321.524 7.87228C320.802 7.87228 320.358 7.31117 320.358 6.62228C320.358 5.88339 320.869 5.37228 321.524 5.37228C322.179 5.37228 322.684 5.88895 322.684 6.62228C322.684 7.35561 322.173 7.87228 321.524 7.87228Z" fill="#712D91"/>
</g>
<path d="M204 2L204 22" stroke="#002855" stroke-opacity="0.5"/>
<path d="M6.06771 16.847C3.69208 16.847 2 15.5099 2 13.3229C2 11.136 3.65846 10.0482 6.72885 9.3796C9.16051 8.84702 10.0794 8.08782 10.0794 6.61473C10.0794 5.14164 9.21654 4.34844 7.81581 4.34844C6.15735 4.34844 4.61095 5.49292 3.22143 7.64589V4.6204C4.46528 3.58924 6.37026 3 8.19681 3C11.2336 3 13.2058 4.67705 13.2058 7.53258V12.5637C13.2058 13.9915 13.3403 15.4986 13.6764 16.5637H10.4716L10.2475 14.5807H10.2251C9.47427 16.0085 7.92787 16.847 6.06771 16.847ZM7.81581 10.4448C5.91083 11 5.19365 11.9292 5.19365 13.0963C5.19365 14.3881 6.0565 15.1926 7.26673 15.1926C8.86916 15.1926 10.113 13.9348 10.113 11.1926V9.09632C9.58633 9.71955 8.83554 10.1388 7.81581 10.4448Z" fill="#002855"/>
<path d="M22.3049 16.847C17.9346 16.847 15.2564 14.1388 15.2564 9.87819C15.2564 5.61756 18.0803 3 22.2824 3C23.9185 3 25.3304 3.41926 26.5743 4.25779V7.53258C25.4649 5.34561 24.1426 4.34844 22.5962 4.34844C20.243 4.34844 18.5621 6.50142 18.5621 9.88952C18.5621 13.2776 20.2542 15.4873 22.7083 15.4873C24.3443 15.4873 25.6442 14.5127 26.6863 12.3258V15.6006C25.5994 16.4051 24.0754 16.847 22.3049 16.847Z" fill="#002855"/>
<path d="M35.3373 16.847C30.967 16.847 28.2888 14.1388 28.2888 9.87819C28.2888 5.61756 31.1127 3 35.3149 3C36.9509 3 38.3628 3.41926 39.6067 4.25779V7.53258C38.4973 5.34561 37.175 4.34844 35.6286 4.34844C33.2754 4.34844 31.5945 6.50142 31.5945 9.88952C31.5945 13.2776 33.2866 15.4873 35.7407 15.4873C37.3767 15.4873 38.6766 14.5127 39.7187 12.3258V15.6006C38.6206 16.4051 37.1078 16.847 35.3373 16.847Z" fill="#002855"/>
<path d="M55.0483 9.93484C55.0483 14.0142 52.3701 16.847 48.1903 16.847C44.0106 16.847 41.2988 14.0255 41.2988 9.93484C41.2988 5.84419 43.977 3 48.1903 3C52.4037 3 55.0483 5.83286 55.0483 9.93484ZM44.5933 9.93484C44.5933 13.4363 46.0276 15.5552 48.1903 15.5552C50.3531 15.5552 51.7538 13.4249 51.7538 9.93484C51.7538 6.44476 50.3194 4.28045 48.1903 4.28045C46.0388 4.29178 44.5933 6.3881 44.5933 9.93484Z" fill="#002855"/>
<path d="M74.4119 16.5638V8.37113C74.4119 5.85555 73.4706 4.9037 71.9466 4.9037C70.4226 4.9037 69.1564 5.96886 69.1564 8.48444V16.5638H66.0076V8.42778C66.0076 5.87821 65.0439 4.9037 63.5199 4.9037C61.8278 4.9037 60.752 6.13883 60.752 8.92637V16.5638H57.6032V7.24931C57.6032 5.95753 57.4911 4.45045 57.3231 3.28331H60.696V5.71957H60.7184C61.4132 4.04251 62.8475 3.01135 64.5956 3.01135C66.3437 3.01135 67.8565 3.98586 68.5737 5.66291H68.6521C69.5598 3.9292 71.0838 3.01135 73 3.01135C75.7902 3.01135 77.5607 4.85838 77.5607 8.13317V12.5751C77.5607 13.8895 77.6392 15.3173 77.8073 16.5751H74.4119V16.5638Z" fill="#002855"/>
<path d="M83.9256 5.60623C84.923 3.98584 86.5478 3 88.4864 3C91.893 3 94.235 5.85552 94.235 9.93484C94.235 14.0142 91.6913 16.847 88.3407 16.847C86.4357 16.847 84.7773 15.8725 83.9144 14.2408H83.892V18.796C83.892 20.2465 83.9481 21.0057 84.1946 22.9887H80.732V7.22663C80.732 6.16147 80.5975 4.42776 80.4518 3.28329H83.8808V5.60623H83.9256ZM83.8136 9.93484C83.8136 13.0623 85.304 15.136 87.5451 15.136C89.7863 15.136 91.0301 13.0623 91.0301 9.90085C91.0301 6.73938 89.7863 4.66572 87.5451 4.66572C85.2816 4.67705 83.8136 6.77337 83.8136 9.93484Z" fill="#002855"/>
<path d="M99.6586 16.847C97.283 16.847 95.5909 15.5099 95.5909 13.3229C95.5909 11.136 97.2494 10.0482 100.32 9.3796C102.751 8.84702 103.67 8.08782 103.67 6.61473C103.67 5.14164 102.807 4.34844 101.407 4.34844C99.7483 4.34844 98.2019 5.49292 96.8123 7.64589V4.6204C98.0562 3.58924 99.9612 3 101.788 3C104.836 3 106.797 4.67705 106.797 7.53258V12.5637C106.797 13.9915 106.931 15.4986 107.267 16.5637H104.062L103.838 14.5807H103.816C103.065 16.0085 101.519 16.847 99.6586 16.847ZM101.407 10.4448C99.5017 11 98.7846 11.9292 98.7846 13.0963C98.7846 14.3881 99.6474 15.1926 100.858 15.1926C102.46 15.1926 103.704 13.9348 103.704 11.1926V9.09632C103.177 9.71955 102.426 10.1388 101.407 10.4448Z" fill="#002855"/>
<path d="M113.05 3.28331V5.71957H113.072C113.845 3.98586 115.537 3.01135 117.465 3.01135C120.143 3.01135 122.115 4.77906 122.115 8.49577V12.5751C122.115 13.8102 122.25 15.6572 122.395 16.5751H118.966V8.63175C118.966 5.92353 117.913 4.91504 116.254 4.91504C114.405 4.91504 113.106 6.20682 113.106 8.55243V16.5751H109.957V8.09917C109.957 6.84138 109.845 4.85838 109.677 3.28331H113.05Z" fill="#002855"/>
<path d="M127.124 20.201L129.029 16.371L123.303 3.2832H126.709L130.643 12.8243H130.665L132.906 7.20388C133.433 5.83278 133.848 4.57499 134.128 3.2832H136.29L130.508 16.5637L128.099 22.9999H125.365C126.071 22.1387 126.597 21.2095 127.124 20.201Z" fill="#002855"/>
<path d="M141.692 3.2948V9.51576H141.714C142.218 8.38262 143.372 7.74806 144.571 7.74806C146.331 7.74806 147.552 8.9152 147.552 11.3175V13.969C147.552 14.6829 147.619 15.8274 147.732 16.5753H145.502V11.3741C145.502 9.65174 144.796 8.99452 143.742 8.99452C142.532 8.99452 141.692 9.83304 141.692 11.3401V16.5753H139.641V6.66024C139.641 5.71973 139.574 4.34862 139.462 3.2948H141.692Z" fill="#002855"/>
<path d="M157.279 11.6006C157.279 11.8726 157.256 12.1672 157.212 12.4051H151.317C151.351 14.5015 152.393 15.8839 153.962 15.8839C155.127 15.8839 156.17 15.136 156.763 13.8442V15.9406C155.867 16.5071 154.858 16.7564 153.738 16.7564C150.914 16.7564 149.155 14.8981 149.155 12.2238C149.155 9.54962 150.903 7.74792 153.413 7.74792C155.822 7.74792 157.279 9.36832 157.279 11.6006ZM153.458 8.62045C152.158 8.62045 151.34 9.85557 151.34 11.5666H155.385C155.441 9.78758 154.724 8.62045 153.458 8.62045Z" fill="#002855"/>
<path d="M160.82 16.7451C159.274 16.7451 158.175 15.8726 158.175 14.4561C158.175 13.0397 159.251 12.3258 161.257 11.8952C162.837 11.5553 163.431 11.0567 163.431 10.0935C163.431 9.13036 162.871 8.62045 161.952 8.62045C160.876 8.62045 159.867 9.36832 158.971 10.7621V8.80175C159.778 8.13319 161.022 7.74792 162.209 7.74792C164.193 7.74792 165.47 8.83574 165.47 10.6941V13.9689C165.47 14.8981 165.56 15.8839 165.773 16.5751H163.689L163.532 15.272H163.509C163.027 16.2012 162.019 16.7451 160.82 16.7451ZM161.952 12.5865C160.708 12.9491 160.248 13.5496 160.248 14.3088C160.248 15.1474 160.809 15.6686 161.593 15.6686C162.635 15.6686 163.442 14.8527 163.442 13.0624V11.7026C163.106 12.1105 162.613 12.3825 161.952 12.5865Z" fill="#002855"/>
<path d="M167.622 16.5637V6.64864C167.622 5.79878 167.566 4.79029 167.443 3.2832H169.672V13.9574C169.672 14.626 169.74 15.8158 169.829 16.5637H167.622Z" fill="#002855"/>
<path d="M176.542 16.2012C176.071 16.5412 175.421 16.7451 174.648 16.7451C173.494 16.7451 172.16 16.3259 172.16 14.0369V8.77914H170.883V8.17857C172.541 8.26922 173.18 7.37404 173.382 5.4137H174.188V7.92928H176.385V8.77914H174.211V14.4562C174.211 15.3967 174.625 15.8726 175.331 15.8726C175.802 15.8726 176.228 15.6007 176.542 15.1247V16.2012Z" fill="#002855"/>
<path d="M179.859 3.29456V9.51552H179.881C180.385 8.38237 181.539 7.74781 182.738 7.74781C184.498 7.74781 185.719 8.91495 185.719 11.3172V13.9688C185.719 14.6827 185.786 15.8271 185.898 16.575H183.669V11.3739C183.669 9.6515 182.963 8.99427 181.909 8.99427C180.699 8.99427 179.859 9.8328 179.859 11.3399V16.575H177.808V6.65999C177.808 5.71948 177.741 4.34838 177.629 3.29456H179.859Z" fill="#002855"/>
<path d="M186.324 20.1558H139.45V21.0396H186.324V20.1558Z" fill="#F06437"/>
<defs>
<clipPath id="clip0_628_86">
<rect width="101" height="20" fill="white" transform="translate(222 2)"/>
</clipPath>
</defs>
</svg>
