<svg width="185" height="111" viewBox="0 0 185 111" fill="none" xmlns="http://www.w3.org/2000/svg">
<rect width="185" height="111" rx="8" fill="#96BEC8"/>
<path d="M62 30.7532C62 28.0649 60.0676 27.4345 58.1352 26.8969V23.0962C59.1372 23.3187 59.7097 24.0603 59.7097 25.5249H61.6779C61.6779 23.0035 60.4433 21.6501 58.1352 21.4276V20H56.8469V21.409C54.5924 21.5944 53.1789 22.9293 53.1789 24.9502C53.1789 27.3789 55.0755 28.0649 56.8469 28.584V32.737C55.666 32.5145 54.9861 31.6802 54.9861 30.0857H53C53 32.7184 54.3956 34.2016 56.8469 34.4241V36H58.1352V34.4056C60.5149 34.2016 62 32.8111 62 30.7532ZM55.2187 24.7833C55.2187 23.7822 55.8091 23.2074 56.8469 23.0591V26.5446C55.7913 26.1924 55.2187 25.803 55.2187 24.7833ZM58.1352 28.9733C59.2982 29.3627 59.9781 29.7706 59.9781 30.8459C59.9781 31.8841 59.3519 32.5886 58.1352 32.7555V28.9733Z" fill="#002855"/>
<path d="M86.7816 62.9797V20H78.3406C77.5674 25.1652 74.2812 27.3333 67 27.3333V33.8377H77.5029V62.9797H86.7816Z" fill="#002855"/>
<path d="M121.809 27.4609V20H94.4887L92.0401 45.571L101.254 46.1449C101.834 43.4667 104.09 41.6812 107.44 41.6812C111.564 41.6812 114.335 44.1681 114.335 49.0145C114.335 53.9246 111.757 56.4754 107.311 56.4754C104.025 56.4754 101.125 54.6261 100.997 51.1826H91.6535C91.6535 59.0899 97.7749 64 107.247 64C117.299 64 124 58.0058 124 48.6319C124 40.1507 118.072 34.3478 109.438 34.3478C106.151 34.3478 103.059 35.4319 100.932 37.6H100.803L101.899 27.4609H121.809Z" fill="#002855"/>
<path d="M22.5 90.717V77.283H27.04C30.1778 77.283 31.7467 78.522 31.7467 81C31.7467 81.8428 31.5244 82.5597 31.0796 83.1509C30.6473 83.7421 30.0543 84.1321 29.3007 84.3208V84.3585C29.7701 84.522 30.1408 84.7799 30.4125 85.1321C30.6843 85.4843 30.9684 86.0818 31.2649 86.9245L32.6177 90.717H30.1902L29.0783 87.3396C28.8189 86.5723 28.5101 86.044 28.1518 85.7547C27.8059 85.4654 27.2994 85.3208 26.6323 85.3208H24.7237V90.717H22.5ZM26.7991 79.1509H24.7237V83.4717H26.9288C27.8183 83.4717 28.473 83.2767 28.893 82.8868C29.3131 82.4843 29.5169 81.9308 29.5045 81.2264C29.5045 79.8428 28.6027 79.1509 26.7991 79.1509Z" fill="#002855"/>
<path d="M44.3534 77.283V79.2453H37.7566V82.8868H43.9458V84.8302H37.7566V88.7547H44.5387V90.717H35.5329V77.283H44.3534Z" fill="#002855"/>
<path d="M63.28 77.283L60.3707 90.717H57.3873L56.0717 85.1321C55.5775 83.0189 55.1575 81.0503 54.8116 79.2264H54.7745C54.4286 81.0503 54.0086 83.0189 53.5145 85.1321L52.1988 90.717H49.2154L46.3061 77.283H48.4927L49.5674 82.4528C50.0492 84.717 50.4384 86.7358 50.7349 88.5094H50.7719C51.229 86.2956 51.6738 84.2704 52.1061 82.434L53.3291 77.283H56.257L57.48 82.434C57.9124 84.2704 58.3571 86.2956 58.8142 88.5094H58.8512C59.1107 86.9623 59.4936 84.9434 60.0001 82.4528L61.0934 77.283H63.28Z" fill="#002855"/>
<path d="M74.4516 90.717L73.2286 87.0755H67.7621L66.5391 90.717H64.2042L69.0036 77.283H71.9871L76.7865 90.717H74.4516ZM68.4292 85.1132H72.5615L72.2094 84.0566C71.4682 81.8176 70.8999 80.0377 70.5046 78.717H70.4676C69.8128 80.9057 69.2507 82.6855 68.7813 84.0566L68.4292 85.1132Z" fill="#002855"/>
<path d="M79.047 90.717V77.283H83.587C86.7249 77.283 88.2938 78.522 88.2938 81C88.2938 81.8428 88.0714 82.5597 87.6267 83.1509C87.1943 83.7421 86.6013 84.1321 85.8477 84.3208V84.3585C86.3172 84.522 86.6878 84.7799 86.9596 85.1321C87.2314 85.4843 87.5155 86.0818 87.812 86.9245L89.1647 90.717H86.7372L85.6254 87.3396C85.366 86.5723 85.0571 86.044 84.6989 85.7547C84.353 85.4654 83.8465 85.3208 83.1794 85.3208H81.2707V90.717H79.047ZM83.3461 79.1509H81.2707V83.4717H83.4758C84.3653 83.4717 85.0201 83.2767 85.4401 82.8868C85.8601 82.4843 86.0639 81.9308 86.0516 81.2264C86.0516 79.8428 85.1498 79.1509 83.3461 79.1509Z" fill="#002855"/>
<path d="M92.0799 90.717V77.283H96.3049C98.5162 77.283 100.221 77.8679 101.419 79.0377C102.618 80.195 103.217 81.8491 103.217 84C103.217 86.1509 102.618 87.8113 101.419 88.9811C100.221 90.1384 98.5162 90.717 96.3049 90.717H92.0799ZM96.2678 79.2453H94.2851V88.7547H96.2678C99.3686 88.7547 100.919 87.1698 100.919 84C100.919 80.8302 99.3686 79.2453 96.2678 79.2453Z" fill="#002855"/>
<path d="M116.725 77C118.307 77 119.579 77.4528 120.543 78.3585C121.506 79.2642 122.019 80.4403 122.081 81.8868H119.838C119.74 80.9937 119.412 80.2956 118.856 79.7925C118.313 79.2767 117.602 79.0189 116.725 79.0189C115.601 79.0189 114.718 79.4654 114.075 80.3585C113.433 81.239 113.112 82.4528 113.112 84C113.112 85.5472 113.427 86.7673 114.057 87.6604C114.699 88.5409 115.57 88.9811 116.67 88.9811C117.547 88.9811 118.263 88.7233 118.819 88.2075C119.387 87.6918 119.733 86.9748 119.857 86.0566H122.136C122 87.6038 121.451 88.8176 120.487 89.6981C119.523 90.566 118.251 91 116.67 91C114.854 91 113.421 90.3774 112.371 89.1321C111.333 87.8868 110.814 86.1761 110.814 84C110.814 81.8239 111.339 80.1132 112.389 78.8679C113.452 77.6226 114.897 77 116.725 77Z" fill="#002855"/>
<path d="M133.735 90.717L132.512 87.0755H127.045L125.822 90.717H123.487L128.287 77.283H131.27L136.07 90.717H133.735ZM127.712 85.1132H131.845L131.493 84.0566C130.751 81.8176 130.183 80.0377 129.788 78.717H129.751C129.096 80.9057 128.534 82.6855 128.064 84.0566L127.712 85.1132Z" fill="#002855"/>
<path d="M138.33 90.717V77.283H142.87C146.008 77.283 147.577 78.522 147.577 81C147.577 81.8428 147.355 82.5597 146.91 83.1509C146.478 83.7421 145.885 84.1321 145.131 84.3208V84.3585C145.6 84.522 145.971 84.7799 146.243 85.1321C146.515 85.4843 146.799 86.0818 147.095 86.9245L148.448 90.717H146.02L144.909 87.3396C144.649 86.5723 144.34 86.044 143.982 85.7547C143.636 85.4654 143.13 85.3208 142.463 85.3208H140.554V90.717H138.33ZM142.629 79.1509H140.554V83.4717H142.759C143.649 83.4717 144.303 83.2767 144.723 82.8868C145.143 82.4843 145.347 81.9308 145.335 81.2264C145.335 79.8428 144.433 79.1509 142.629 79.1509Z" fill="#002855"/>
<path d="M151.363 90.717V77.283H155.588C157.799 77.283 159.504 77.8679 160.703 79.0377C161.901 80.195 162.5 81.8491 162.5 84C162.5 86.1509 161.901 87.8113 160.703 88.9811C159.504 90.1384 157.799 90.717 155.588 90.717H151.363ZM155.551 79.2453H153.568V88.7547H155.551C158.652 88.7547 160.202 87.1698 160.202 84C160.202 80.8302 158.652 79.2453 155.551 79.2453Z" fill="#002855"/>
<path d="M22.5 90.717V77.283H27.04C30.1778 77.283 31.7467 78.522 31.7467 81C31.7467 81.8428 31.5244 82.5597 31.0796 83.1509C30.6473 83.7421 30.0543 84.1321 29.3007 84.3208V84.3585C29.7701 84.522 30.1408 84.7799 30.4125 85.1321C30.6843 85.4843 30.9684 86.0818 31.2649 86.9245L32.6177 90.717H30.1902L29.0783 87.3396C28.8189 86.5723 28.5101 86.044 28.1518 85.7547C27.8059 85.4654 27.2994 85.3208 26.6323 85.3208H24.7237V90.717H22.5ZM26.7991 79.1509H24.7237V83.4717H26.9288C27.8183 83.4717 28.473 83.2767 28.893 82.8868C29.3131 82.4843 29.5169 81.9308 29.5045 81.2264C29.5045 79.8428 28.6027 79.1509 26.7991 79.1509Z" stroke="#002855" stroke-width="0.5"/>
<path d="M44.3534 77.283V79.2453H37.7566V82.8868H43.9458V84.8302H37.7566V88.7547H44.5387V90.717H35.5329V77.283H44.3534Z" stroke="#002855" stroke-width="0.5"/>
<path d="M63.28 77.283L60.3707 90.717H57.3873L56.0717 85.1321C55.5775 83.0189 55.1575 81.0503 54.8116 79.2264H54.7745C54.4286 81.0503 54.0086 83.0189 53.5145 85.1321L52.1988 90.717H49.2154L46.3061 77.283H48.4927L49.5674 82.4528C50.0492 84.717 50.4384 86.7358 50.7349 88.5094H50.7719C51.229 86.2956 51.6738 84.2704 52.1061 82.434L53.3291 77.283H56.257L57.48 82.434C57.9124 84.2704 58.3571 86.2956 58.8142 88.5094H58.8512C59.1107 86.9623 59.4936 84.9434 60.0001 82.4528L61.0934 77.283H63.28Z" stroke="#002855" stroke-width="0.5"/>
<path d="M74.4516 90.717L73.2286 87.0755H67.7621L66.5391 90.717H64.2042L69.0036 77.283H71.9871L76.7865 90.717H74.4516ZM68.4292 85.1132H72.5615L72.2094 84.0566C71.4682 81.8176 70.8999 80.0377 70.5046 78.717H70.4676C69.8128 80.9057 69.2507 82.6855 68.7813 84.0566L68.4292 85.1132Z" stroke="#002855" stroke-width="0.5"/>
<path d="M79.047 90.717V77.283H83.587C86.7249 77.283 88.2938 78.522 88.2938 81C88.2938 81.8428 88.0714 82.5597 87.6267 83.1509C87.1943 83.7421 86.6013 84.1321 85.8477 84.3208V84.3585C86.3172 84.522 86.6878 84.7799 86.9596 85.1321C87.2314 85.4843 87.5155 86.0818 87.812 86.9245L89.1647 90.717H86.7372L85.6254 87.3396C85.366 86.5723 85.0571 86.044 84.6989 85.7547C84.353 85.4654 83.8465 85.3208 83.1794 85.3208H81.2707V90.717H79.047ZM83.3461 79.1509H81.2707V83.4717H83.4758C84.3653 83.4717 85.0201 83.2767 85.4401 82.8868C85.8601 82.4843 86.0639 81.9308 86.0516 81.2264C86.0516 79.8428 85.1498 79.1509 83.3461 79.1509Z" stroke="#002855" stroke-width="0.5"/>
<path d="M92.0799 90.717V77.283H96.3049C98.5162 77.283 100.221 77.8679 101.419 79.0377C102.618 80.195 103.217 81.8491 103.217 84C103.217 86.1509 102.618 87.8113 101.419 88.9811C100.221 90.1384 98.5162 90.717 96.3049 90.717H92.0799ZM96.2678 79.2453H94.2851V88.7547H96.2678C99.3686 88.7547 100.919 87.1698 100.919 84C100.919 80.8302 99.3686 79.2453 96.2678 79.2453Z" stroke="#002855" stroke-width="0.5"/>
<path d="M116.725 77C118.307 77 119.579 77.4528 120.543 78.3585C121.506 79.2642 122.019 80.4403 122.081 81.8868H119.838C119.74 80.9937 119.412 80.2956 118.856 79.7925C118.313 79.2767 117.602 79.0189 116.725 79.0189C115.601 79.0189 114.718 79.4654 114.075 80.3585C113.433 81.239 113.112 82.4528 113.112 84C113.112 85.5472 113.427 86.7673 114.057 87.6604C114.699 88.5409 115.57 88.9811 116.67 88.9811C117.547 88.9811 118.263 88.7233 118.819 88.2075C119.387 87.6918 119.733 86.9748 119.857 86.0566H122.136C122 87.6038 121.451 88.8176 120.487 89.6981C119.523 90.566 118.251 91 116.67 91C114.854 91 113.421 90.3774 112.371 89.1321C111.333 87.8868 110.814 86.1761 110.814 84C110.814 81.8239 111.339 80.1132 112.389 78.8679C113.452 77.6226 114.897 77 116.725 77Z" stroke="#002855" stroke-width="0.5"/>
<path d="M133.735 90.717L132.512 87.0755H127.045L125.822 90.717H123.487L128.287 77.283H131.27L136.07 90.717H133.735ZM127.712 85.1132H131.845L131.493 84.0566C130.751 81.8176 130.183 80.0377 129.788 78.717H129.751C129.096 80.9057 128.534 82.6855 128.064 84.0566L127.712 85.1132Z" stroke="#002855" stroke-width="0.5"/>
<path d="M138.33 90.717V77.283H142.87C146.008 77.283 147.577 78.522 147.577 81C147.577 81.8428 147.355 82.5597 146.91 83.1509C146.478 83.7421 145.885 84.1321 145.131 84.3208V84.3585C145.6 84.522 145.971 84.7799 146.243 85.1321C146.515 85.4843 146.799 86.0818 147.095 86.9245L148.448 90.717H146.02L144.909 87.3396C144.649 86.5723 144.34 86.044 143.982 85.7547C143.636 85.4654 143.13 85.3208 142.463 85.3208H140.554V90.717H138.33ZM142.629 79.1509H140.554V83.4717H142.759C143.649 83.4717 144.303 83.2767 144.723 82.8868C145.143 82.4843 145.347 81.9308 145.335 81.2264C145.335 79.8428 144.433 79.1509 142.629 79.1509Z" stroke="#002855" stroke-width="0.5"/>
<path d="M151.363 90.717V77.283H155.588C157.799 77.283 159.504 77.8679 160.703 79.0377C161.901 80.195 162.5 81.8491 162.5 84C162.5 86.1509 161.901 87.8113 160.703 88.9811C159.504 90.1384 157.799 90.717 155.588 90.717H151.363ZM155.551 79.2453H153.568V88.7547H155.551C158.652 88.7547 160.202 87.1698 160.202 84C160.202 80.8302 158.652 79.2453 155.551 79.2453Z" stroke="#002855" stroke-width="0.5"/>
</svg>
