<svg width="79" height="41" viewBox="0 0 79 41" fill="none" xmlns="http://www.w3.org/2000/svg">
<path d="M11.94 14.1L8.32 3.04H8.28L4.64 14.1H4.04L0.06 0.799999H1.56L4.58 11.48H4.64L8.2 0.7H8.82L12.46 11.5H12.52L14.86 3C15.06 2.24 15.2 1.56 15.24 0.799999H16.5L12.54 14.1H11.94ZM20.9208 4.3C23.3608 4.3 24.9608 6.02 24.9608 8.44C24.9608 8.68 24.9408 8.92 24.9008 9.26H17.9808C18.0008 11.78 19.3608 13.5 21.3608 13.5C22.6008 13.5 23.7008 12.84 24.4208 11.7V13.3C23.6208 13.88 22.4608 14.2 21.2808 14.2C18.4008 14.2 16.5008 12.18 16.5008 9.16C16.5008 6.3 18.3208 4.3 20.9208 4.3ZM23.6408 8.58C23.6608 6.4 22.5408 5 20.9208 5C19.2608 5 18.0608 6.52 18.0008 8.58H23.6408ZM28.7525 0.799999L26.8325 5.4H26.3925L27.0725 0.799999H28.7525ZM36.1661 6.22C35.7661 5.68 35.2461 5.46 34.7461 5.46C33.4461 5.46 32.4061 6.92 32.4061 9.12V11.3C32.4061 12.18 32.4661 13.08 32.5861 14H31.0461V7.2C31.0461 6.24 31.0061 5.54 30.8661 4.5H32.4061V6.76H32.4261C32.8461 5.2 33.8061 4.36 35.0461 4.36C35.4061 4.36 35.8461 4.42 36.1661 4.62V6.22ZM41.0966 4.3C43.5366 4.3 45.1366 6.02 45.1366 8.44C45.1366 8.68 45.1166 8.92 45.0766 9.26H38.1566C38.1766 11.78 39.5366 13.5 41.5366 13.5C42.7766 13.5 43.8766 12.84 44.5966 11.7V13.3C43.7966 13.88 42.6366 14.2 41.4566 14.2C38.5766 14.2 36.6766 12.18 36.6766 9.16C36.6766 6.3 38.4966 4.3 41.0966 4.3ZM43.8166 8.58C43.8366 6.4 42.7166 5 41.0966 5C39.4366 5 38.2366 6.52 38.1766 8.58H43.8166ZM51.5927 0.619999C52.1127 0.619999 52.5327 1.04 52.5327 1.54C52.5327 2.04 52.0927 2.44 51.5927 2.44C51.0727 2.44 50.6527 2.04 50.6527 1.54C50.6527 1.04 51.0727 0.619999 51.5927 0.619999ZM50.7527 4.5H52.2727V11.3C52.2727 12.16 52.3527 13.36 52.4327 14H50.9127V7.2C50.9127 6.34 50.8527 5.28 50.7527 4.5ZM54.8114 4.5H56.3514V6.26H56.3714C56.9514 5.02 58.2514 4.3 59.6714 4.3C61.6114 4.3 63.0114 5.48 63.0114 8.2V11.3C63.0114 12.02 63.0714 13.24 63.1714 14H61.6514V8.36C61.6514 6.02 60.6714 5.14 59.2714 5.14C57.5714 5.14 56.3514 6.44 56.3514 8.52V14H54.9914V7.68C54.9914 6.84 54.9114 5.6 54.8114 4.5ZM70.0497 0.619999C70.5697 0.619999 70.9897 1.04 70.9897 1.54C70.9897 2.04 70.5497 2.44 70.0497 2.44C69.5297 2.44 69.1097 2.04 69.1097 1.54C69.1097 1.04 69.5297 0.619999 70.0497 0.619999ZM69.2097 4.5H70.7297V11.3C70.7297 12.16 70.8097 13.36 70.8897 14H69.3697V7.2C69.3697 6.34 69.3097 5.28 69.2097 4.5ZM78.1484 12.76V13.64C77.7084 14.02 77.0484 14.2 76.3484 14.2C75.2084 14.2 73.9084 13.74 73.9084 11.54V5.18H72.2484V4.74C73.9284 4.78 74.4484 4.12 74.6484 1.74H75.2884V4.5H77.9484V5.18H75.2884V11.8C75.2884 12.92 75.7884 13.5 76.6284 13.5C77.1884 13.5 77.7884 13.22 78.1484 12.76ZM0.06 26.5H1.48L4.06 34.2H4.12L6.68 26.5H7.58L10.18 34.2H10.24L11.92 29.2C12.22 28.32 12.52 27.4 12.62 26.5H13.74L10.38 36H9.56L6.88 28.34L4.24 36H3.42L0.06 26.5ZM15.9286 22.62C16.4486 22.62 16.8686 23.04 16.8686 23.54C16.8686 24.04 16.4286 24.44 15.9286 24.44C15.4086 24.44 14.9886 24.04 14.9886 23.54C14.9886 23.04 15.4086 22.62 15.9286 22.62ZM15.0886 26.5H16.6086V33.3C16.6086 34.16 16.6886 35.36 16.7686 36H15.2486V29.2C15.2486 28.34 15.1886 27.28 15.0886 26.5ZM24.0273 34.76V35.64C23.5873 36.02 22.9273 36.2 22.2273 36.2C21.0873 36.2 19.7873 35.74 19.7873 33.54V27.18H18.1273V26.74C19.8073 26.78 20.3273 26.12 20.5273 23.74H21.1673V26.5H23.8273V27.18H21.1673V33.8C21.1673 34.92 21.6673 35.5 22.5073 35.5C23.0673 35.5 23.6673 35.22 24.0273 34.76ZM25.2411 21.4H26.7811V28.24H26.8811C27.4611 27.02 28.6611 26.3 30.0011 26.3C32.0011 26.3 33.4411 27.52 33.4411 30.34V33.3C33.4411 34.06 33.5011 35.34 33.6011 36H32.0811V30.46C32.0811 28 31.1011 27.14 29.6411 27.14C27.9811 27.14 26.7811 28.44 26.7811 30.52V36H25.4211V25.1C25.4211 24.06 25.3611 22.78 25.2411 21.4ZM39.5464 40.6C39.9264 40.16 40.2864 39.52 40.6864 38.68L42.1064 35.78L38.1264 26.5H39.6464L42.7864 34.12H42.8064L44.7264 29.2C45.1064 28.22 45.4064 27.36 45.6264 26.5H46.7664L42.7664 36L40.8864 40.6H39.5464ZM51.7081 26.3C54.5481 26.3 56.3881 28.3 56.3881 31.22C56.3881 34.18 54.5481 36.2 51.7081 36.2C48.8681 36.2 47.0281 34.16 47.0281 31.22C47.0281 28.3 48.8681 26.3 51.7081 26.3ZM51.7081 26.96C49.8881 26.96 48.4881 28.58 48.4881 31.22C48.4881 33.88 49.8881 35.54 51.7081 35.54C53.5281 35.54 54.9281 33.88 54.9281 31.22C54.9281 28.58 53.5281 26.96 51.7081 26.96ZM61.5722 36.2C59.5522 36.2 58.1922 35.06 58.1922 32.5V29.2C58.1922 28.36 58.1322 27.4 58.0322 26.5H59.5522V32.4C59.5522 34.56 60.4122 35.34 61.8722 35.34C63.5722 35.34 64.7522 34.1 64.7522 31.84V26.5H66.1122V33.3C66.1122 34.14 66.1722 35.42 66.2722 36H64.7522V34.22H64.7322C64.1122 35.44 63.0522 36.2 61.5722 36.2Z" fill="#002855"/>
</svg>
